<svg width="48" height="48" viewBox="0 0 48 48" fill="none" xmlns="http://www.w3.org/2000/svg">
<rect width="48" height="48" rx="24" fill="#F5F5F5"/>
<path d="M24 18.7C24.0074 17.6483 24.2109 16.6072 24.6 15.63C24.41 15.63 24.22 15.63 24.02 15.63C22.4878 15.6281 20.9842 16.0443 19.6711 16.8338C18.3579 17.6233 17.2851 18.7561 16.5682 20.1102C15.8513 21.4643 15.5174 22.9883 15.6026 24.5181C15.6878 26.0479 16.1888 27.5255 17.0516 28.7916C17.9144 30.0577 19.1064 31.0644 20.499 31.7033C21.8917 32.3421 23.4322 32.5888 24.9547 32.4168C26.4772 32.2448 27.9239 31.6607 29.1389 30.7273C30.354 29.7939 31.2913 28.5467 31.85 27.12C29.7162 26.9776 27.7169 26.0277 26.2586 24.4636C24.8003 22.8994 23.9927 20.8385 24 18.7V18.7Z" stroke="#151E28" stroke-width="1.2" stroke-linecap="round" stroke-linejoin="round"/>
</svg>
