<svg width="48" height="48" viewBox="0 0 48 48" fill="none" xmlns="http://www.w3.org/2000/svg">
<rect width="48" height="48" rx="24" fill="#1E1E1E"/>
<g clip-path="url(#clip0_114_998)">
<path d="M23.9999 27.35C25.8501 27.35 27.3499 25.8501 27.3499 24C27.3499 22.1498 25.8501 20.65 23.9999 20.65C22.1497 20.65 20.6499 22.1498 20.6499 24C20.6499 25.8501 22.1497 27.35 23.9999 27.35Z" stroke="white" stroke-width="1.2" stroke-linecap="round" stroke-linejoin="round"/>
<path d="M24 17.58V15.6" stroke="white" stroke-width="1.2" stroke-linecap="round" stroke-linejoin="round"/>
<path d="M19.4601 19.46L18.0601 18.06" stroke="white" stroke-width="1.2" stroke-linecap="round" stroke-linejoin="round"/>
<path d="M17.5801 24H15.6001" stroke="white" stroke-width="1.2" stroke-linecap="round" stroke-linejoin="round"/>
<path d="M19.4601 28.54L18.0601 29.94" stroke="white" stroke-width="1.2" stroke-linecap="round" stroke-linejoin="round"/>
<path d="M24 30.42V32.4" stroke="white" stroke-width="1.2" stroke-linecap="round" stroke-linejoin="round"/>
<path d="M28.54 28.54L29.94 29.94" stroke="white" stroke-width="1.2" stroke-linecap="round" stroke-linejoin="round"/>
<path d="M30.4199 24H32.3999" stroke="white" stroke-width="1.2" stroke-linecap="round" stroke-linejoin="round"/>
<path d="M28.54 19.46L29.94 18.06" stroke="white" stroke-width="1.2" stroke-linecap="round" stroke-linejoin="round"/>
</g>
<defs>
<clipPath id="clip0_114_998">
<rect x="15" y="15" width="18" height="18" rx="5" fill="white"/>
</clipPath>
</defs>
</svg>
